<mxfile host="Electron" compressed="false" modified="2022-03-02T22:36:53.401Z" agent="5.0 (Windows NT 10.0; Win64; x64) AppleWebKit/537.36 (KHTML, like Gecko) draw.io/16.5.1 Chrome/96.0.4664.110 Electron/16.0.7 Safari/537.36" etag="KKL8RBBvg5yGIEoqfJmY" version="16.5.1" type="device">
  <diagram id="ETWsS70P1tHz5V-jA7J0" name="Page-1">
    <mxGraphModel dx="1102" dy="875" grid="1" gridSize="10" guides="1" tooltips="1" connect="1" arrows="1" fold="1" page="1" pageScale="1" pageWidth="827" pageHeight="1169" math="0" shadow="0">
      <root>
        <mxCell id="0" />
        <mxCell id="1" parent="0" />
        <mxCell id="5jw1HEQL-MALw_pyksJL-26" style="edgeStyle=orthogonalEdgeStyle;rounded=0;orthogonalLoop=1;jettySize=auto;html=1;exitX=0.5;exitY=1;exitDx=0;exitDy=0;entryX=0;entryY=0.513;entryDx=0;entryDy=0;entryPerimeter=0;startArrow=classic;startFill=1;" edge="1" parent="1" source="4" target="5jw1HEQL-MALw_pyksJL-24">
          <mxGeometry relative="1" as="geometry">
            <Array as="points">
              <mxPoint x="190" y="521" />
            </Array>
          </mxGeometry>
        </mxCell>
        <mxCell id="5jw1HEQL-MALw_pyksJL-29" value="Main Data Exchange" style="edgeLabel;html=1;align=center;verticalAlign=middle;resizable=0;points=[];" vertex="1" connectable="0" parent="5jw1HEQL-MALw_pyksJL-26">
          <mxGeometry x="-0.4627" y="-1" relative="1" as="geometry">
            <mxPoint x="61" y="-24" as="offset" />
          </mxGeometry>
        </mxCell>
        <mxCell id="4" value="BGEPR Server" style="rounded=0;whiteSpace=wrap;html=1;fillColor=#0a865d;fontColor=#FFFFFF;fontStyle=1" parent="1" vertex="1">
          <mxGeometry x="140" y="400" width="100" height="40" as="geometry" />
        </mxCell>
        <mxCell id="5jw1HEQL-MALw_pyksJL-24" value="" style="html=1;verticalLabelPosition=bottom;align=center;labelBackgroundColor=#ffffff;verticalAlign=top;strokeWidth=2;strokeColor=#0080F0;shadow=0;dashed=0;shape=mxgraph.ios7.icons.smartphone;" vertex="1" parent="1">
          <mxGeometry x="310" y="480" width="38" height="80" as="geometry" />
        </mxCell>
        <mxCell id="5jw1HEQL-MALw_pyksJL-28" style="edgeStyle=orthogonalEdgeStyle;rounded=0;orthogonalLoop=1;jettySize=auto;html=1;exitX=0.5;exitY=1;exitDx=0;exitDy=0;entryX=1;entryY=0.475;entryDx=0;entryDy=0;entryPerimeter=0;startArrow=none;startFill=0;" edge="1" parent="1" source="5jw1HEQL-MALw_pyksJL-27" target="5jw1HEQL-MALw_pyksJL-24">
          <mxGeometry relative="1" as="geometry">
            <Array as="points">
              <mxPoint x="480" y="518" />
            </Array>
          </mxGeometry>
        </mxCell>
        <mxCell id="5jw1HEQL-MALw_pyksJL-30" value="GET BGERP&amp;nbsp; Server&amp;nbsp;&lt;br&gt;URL by SERVER_ID" style="edgeLabel;html=1;align=center;verticalAlign=middle;resizable=0;points=[];" vertex="1" connectable="0" parent="5jw1HEQL-MALw_pyksJL-28">
          <mxGeometry x="-0.5048" relative="1" as="geometry">
            <mxPoint x="-60" y="-22" as="offset" />
          </mxGeometry>
        </mxCell>
        <mxCell id="5jw1HEQL-MALw_pyksJL-27" value="BGEPR.ORG" style="rounded=0;whiteSpace=wrap;html=1;fillColor=#0a865d;fontColor=#FFFFFF;fontStyle=1" vertex="1" parent="1">
          <mxGeometry x="430" y="400" width="100" height="40" as="geometry" />
        </mxCell>
      </root>
    </mxGraphModel>
  </diagram>
</mxfile>
